<?xml version="1.0" encoding="UTF-8" standalone="no"?>
<!-- Created with Inkscape (http://www.inkscape.org/) -->

<svg
   xmlns:dc="http://purl.org/dc/elements/1.1/"
   xmlns:cc="http://creativecommons.org/ns#"
   xmlns:rdf="http://www.w3.org/1999/02/22-rdf-syntax-ns#"
   xmlns:svg="http://www.w3.org/2000/svg"
   xmlns="http://www.w3.org/2000/svg"
   xmlns:sodipodi="http://sodipodi.sourceforge.net/DTD/sodipodi-0.dtd"
   xmlns:inkscape="http://www.inkscape.org/namespaces/inkscape"
   width="359.05087"
   height="55.461151"
   id="svg2"
   version="1.1"
   inkscape:version="0.48.2 r9819"
   sodipodi:docname="New document 1">
  <defs
     id="defs4" />
  <sodipodi:namedview
     id="base"
     pagecolor="#ffffff"
     bordercolor="#666666"
     borderopacity="1.0"
     inkscape:pageopacity="0.0"
     inkscape:pageshadow="2"
     inkscape:zoom="1.1569609"
     inkscape:cx="174.6397"
     inkscape:cy="96.852621"
     inkscape:document-units="px"
     inkscape:current-layer="g2993"
     showgrid="false"
     fit-margin-top="0"
     fit-margin-left="0"
     fit-margin-right="0"
     fit-margin-bottom="0"
     inkscape:window-width="1440"
     inkscape:window-height="853"
     inkscape:window-x="-4"
     inkscape:window-y="-4"
     inkscape:window-maximized="1" />
  <metadata
     id="metadata7">
    <rdf:RDF>
      <cc:Work
         rdf:about="">
        <dc:format>image/svg+xml</dc:format>
        <dc:type
           rdf:resource="http://purl.org/dc/dcmitype/StillImage" />
        <dc:title></dc:title>
      </cc:Work>
    </rdf:RDF>
  </metadata>
  <g
     inkscape:label="Layer 1"
     inkscape:groupmode="layer"
     id="layer1"
     transform="translate(-200.3603,-112.29676)">
    <g
       transform="matrix(1.25,0,0,-1.25,-7.0843515,1027.3224)"
       inkscape:label="pdf_Stockholder Letter"
       id="g2993">
      <path
         id="path2995"
         style="fill:#40c1e6;fill-opacity:1;fill-rule:nonzero;stroke:none"
         d="m 358.19195,732.02051 c 15.18723,0 25.96348,-7.77368 25.96348,-22.18332 0,-13.78112 -10.00095,-22.1856 -25.96348,-22.1856 -15.59782,0 -26.00019,8.0604 -26.00019,22.1856 0,13.95547 10.2785,22.18332 26.00019,22.18332 m 0,-35.19831 c 8.11775,0 12.89344,5.22068 12.89344,13.01499 0,8.19346 -5.05783,13.02648 -12.89344,13.02648 -8.26914,0 -12.93931,-5.21838 -12.93931,-13.02648 0,-7.45942 4.52337,-13.01499 12.93931,-13.01499 m -88.74012,34.66156 -25.54372,0 0,-3.33977 c 0,-2.91083 1.663,-5.7712 6.07169,-5.7712 1.96119,0 16.31348,-0.007 16.31348,-0.007 6.79881,0 9.23482,-2.06213 9.23482,-7.17041 l 0,-0.72485 -17.26082,0 c -12.79709,0 -17.53149,-5.56016 -17.53149,-13.11364 0,-9.13619 6.5442,-13.16409 17.56819,-13.16409 l 11.48046,0 c 15.02206,0 18.2311,7.02131 18.2311,16.32724 l 0,10.76479 c 0,9.98949 -3.94993,16.1988 -18.56371,16.1988 m 6.07627,-27.05993 c 0,-4.37197 -2.17452,-7.71863 -8.38153,-7.71863 l -6.51668,0 c -4.52566,0 -7.23692,1.14232 -7.23692,4.6243 0,3.31913 2.50941,4.62659 7.23692,4.62659 l 14.89821,0 0,-1.53226 z m 43.33441,17.98567 6.34465,0 c 4.53942,0 7.23233,1.53454 7.23233,5.42712 l 0,3.64714 -18.05905,0 c -15.123,0 -22.36911,-8.33108 -22.36911,-21.64657 0,-16.6025 11.03086,-21.64426 22.36911,-21.64426 l 18.05905,0 0,3.68842 c 0,3.84441 -2.81449,5.39272 -6.92497,5.39272 l -6.65201,0 c -7.20711,0 -13.85912,2.41995 -13.85912,12.56312 0,8.82424 5.03947,12.57231 13.85912,12.57231 M 192.60046,700.03812 c 0,0 -10.74643,26.26627 -11.33594,27.77559 -0.83493,2.06442 -1.96579,3.67008 -6.03039,3.67008 l -9.27841,0 19.05916,-43.29083 13.85453,0 19.6739,43.29083 -8.14298,0 c -3.51868,0 -4.86285,-1.41298 -5.73908,-3.46822 l -11.85205,-27.97745 -0.20874,0 z m 227.6387,0.38536 c 0,0 -7.89984,21.07082 -9.34493,25.05974 -0.97945,2.66767 -2.32132,6.00057 -8.74624,6.00057 l -14.70095,0 0,-43.29083 4.99129,0 c 3.74808,0 6.14739,1.56437 6.14739,5.18398 l 0,30.27812 0.20414,0 14.25136,-35.4621 13.34761,0 14.272,35.4621 0.19957,0 0,-30.2873 c 0,-3.08056 1.7731,-5.1748 6.1726,-5.1748 l 6.16343,0 0,43.29083 -13.76737,0 c -4.88119,0 -7.8769,-1.25012 -9.36557,-5.31932 -0.96798,-2.64475 -9.60642,-25.74099 -9.60642,-25.74099 l -0.21791,0 z m -196.80318,31.06031 0,-38.21007 c 0,-2.97048 1.88779,-5.08076 5.99598,-5.08076 l 6.48228,0 0,43.29083 -12.47826,0"
         inkscape:connector-curvature="0" />
    </g>
    <flowRoot
       xml:space="preserve"
       id="flowRoot3167"
       style="font-size:24px;font-style:normal;font-variant:normal;font-weight:normal;font-stretch:normal;line-height:125%;letter-spacing:0px;word-spacing:0px;fill:#000000;fill-opacity:1;stroke:none;font-family:Century;-inkscape-font-specification:Century"><flowRegion
         id="flowRegion3169"><rect
           id="rect3171"
           width="1040"
           height="700"
           x="-94.285713"
           y="203.79076" /></flowRegion><flowPara
         id="flowPara3173"></flowPara></flowRoot>  </g>
</svg>
