<?xml version="1.0" encoding="utf-8"?>
<!-- Generator: Adobe Illustrator 17.0.2, SVG Export Plug-In . SVG Version: 6.00 Build 0)  -->
<!DOCTYPE svg PUBLIC "-//W3C//DTD SVG 1.1//EN" "http://www.w3.org/Graphics/SVG/1.1/DTD/svg11.dtd">
<svg version="1.1" id="Layer_1" xmlns="http://www.w3.org/2000/svg" xmlns:xlink="http://www.w3.org/1999/xlink" x="0px" y="0px"
	 width="960px" height="560px" viewBox="0 0 960 560" enable-background="new 0 0 960 560" xml:space="preserve">
<path fill="#FF0000" d="M299.669,206.406c-3.529-13.106-13.862-23.439-26.968-26.968c-23.943-6.553-119.716-6.553-119.716-6.553
	s-95.773,0-119.716,6.301c-12.854,3.528-23.439,14.114-26.968,27.22C0,230.349,0,280,0,280s0,49.903,6.301,73.594
	c3.528,13.106,13.862,23.439,26.968,26.968c24.195,6.553,119.716,6.553,119.716,6.553s95.773,0,119.716-6.301
	c13.106-3.529,23.439-13.862,26.968-26.968c6.301-23.943,6.301-73.594,6.301-73.594S306.222,230.349,299.669,206.406
	L299.669,206.406z"/>
<path fill="#FFFFFF" d="M122.489,325.87L202.132,280l-79.643-45.87V325.87z"/>
<g>
	<path fill="#FFFFFF" d="M444.337,367.96c-6.049-4.033-10.333-10.333-12.854-19.155c-2.52-8.569-3.781-20.163-3.781-34.277v-19.407
		c0-14.366,1.512-25.96,4.285-34.781c3.024-8.821,7.561-15.122,13.61-19.155c6.301-4.033,14.366-6.049,24.447-6.049
		c9.829,0,17.894,2.016,23.943,6.049c6.049,4.033,10.333,10.585,13.106,19.155c2.772,8.569,4.285,20.163,4.285,34.781v19.407
		c0,14.366-1.26,25.708-4.033,34.529c-2.772,8.569-7.057,15.122-13.106,19.155c-6.049,4.033-14.366,6.049-24.699,6.049
		C458.955,374.009,450.386,371.993,444.337,367.96L444.337,367.96z M478.362,346.789c1.764-4.285,2.52-11.594,2.52-21.423v-41.838
		c0-9.577-0.756-16.634-2.52-21.171c-1.764-4.537-4.537-6.553-8.821-6.553c-4.033,0-7.057,2.268-8.569,6.553
		c-1.764,4.537-2.52,11.594-2.52,21.171v41.838c0,9.829,0.756,17.138,2.52,21.423c1.512,4.285,4.537,6.553,8.821,6.553
		C473.825,353.342,476.598,351.326,478.362,346.789z M909.593,314.781v6.805c0,8.569,0.252,15.122,0.756,19.407
		c0.504,4.285,1.512,7.561,3.276,9.325c1.512,2.016,4.033,3.024,7.561,3.024c4.537,0,7.561-1.764,9.325-5.293
		c1.764-3.529,2.52-9.325,2.772-17.642l25.96,1.512c0.252,1.26,0.252,2.772,0.252,4.789c0,12.35-3.276,21.675-10.081,27.724
		c-6.805,6.049-16.382,9.073-28.732,9.073c-14.87,0-25.203-4.789-31.252-14.114s-9.073-23.691-9.073-43.35v-23.439
		c0-20.163,3.024-34.781,9.325-44.106c6.301-9.325,16.886-13.862,31.756-13.862c10.333,0,18.398,2.016,23.943,5.797
		s9.325,9.829,11.594,17.642c2.268,8.065,3.276,19.155,3.276,33.269v22.935h-50.659V314.781z M913.374,258.325
		c-1.512,2.016-2.52,5.041-3.024,9.325c-0.504,4.285-0.756,10.837-0.756,19.659v9.577h22.179v-9.577
		c0-8.569-0.252-15.122-0.756-19.659c-0.504-4.537-1.764-7.561-3.276-9.325c-1.512-1.764-4.033-2.772-7.057-2.772
		C917.154,255.301,914.886,256.309,913.374,258.325L913.374,258.325z M370.743,312.26l-34.277-124.253h29.992l12.098,56.204
		c3.024,13.862,5.293,25.708,6.805,35.537h0.756c1.008-7.057,3.276-18.651,6.805-35.285l12.602-56.456h29.992L400.735,312.26v59.48
		h-29.74v-59.48H370.743z M608.916,237.658v134.334h-23.691l-2.52-16.382h-0.756c-6.301,12.35-16.13,18.651-28.984,18.651
		c-8.821,0-15.374-3.024-19.659-8.821c-4.285-5.797-6.301-14.87-6.301-27.472v-100.31h30.244v98.546
		c0,6.049,0.756,10.333,2.016,12.854c1.26,2.52,3.528,3.781,6.553,3.781c2.52,0,5.041-0.756,7.561-2.52
		c2.52-1.512,4.285-3.529,5.293-6.049V237.658H608.916L608.916,237.658z M763.917,237.658v134.334h-23.691l-2.52-16.382h-0.756
		c-6.301,12.35-16.13,18.651-28.984,18.651c-8.821,0-15.374-3.024-19.659-8.821c-4.285-5.797-6.301-14.87-6.301-27.472v-100.31
		h30.244v98.546c0,6.049,0.756,10.333,2.016,12.854c1.26,2.52,3.529,3.781,6.553,3.781c2.52,0,5.041-0.756,7.561-2.52
		c2.52-1.512,4.285-3.529,5.293-6.049V237.658H763.917L763.917,237.658z"/>
	<path fill="#FFFFFF" d="M691.079,212.455h-29.992v159.286h-29.488V212.455h-29.992v-24.447h89.472V212.455z M863.975,259.081
		c-1.764-8.569-4.789-14.618-8.821-18.399c-4.033-3.781-9.829-5.797-16.886-5.797c-5.545,0-10.837,1.512-15.626,4.789
		c-4.789,3.024-8.569,7.309-11.09,12.35h-0.252v-70.822h-29.236v190.538h24.951l3.024-12.602h0.756
		c2.268,4.537,5.797,8.065,10.585,10.837c4.789,2.52,9.829,4.033,15.626,4.033c10.333,0,17.642-4.789,22.431-14.114
		c4.789-9.325,7.309-24.195,7.309-44.106v-21.171C866.495,279.244,865.739,267.398,863.975,259.081L863.975,259.081z
		 M836.251,313.773c0,9.829-0.504,17.39-1.26,22.935c-0.756,5.545-2.268,9.577-4.033,11.846c-2.016,2.268-4.537,3.528-7.561,3.528
		c-2.52,0-4.789-0.504-6.805-1.764c-2.016-1.26-3.781-3.024-5.041-5.293V268.91c1.008-3.528,2.772-6.553,5.293-9.073
		c2.52-2.268,5.293-3.528,8.065-3.528c3.024,0,5.545,1.26,7.057,3.528c1.764,2.52,2.772,6.553,3.528,12.098
		c0.756,5.797,1.008,13.862,1.008,24.195v17.642H836.251z"/>
</g>
</svg>
