<?xml version="1.0" encoding="utf-8"?>
<!-- Generator: Adobe Illustrator 17.0.2, SVG Export Plug-In . SVG Version: 6.00 Build 0)  -->
<!DOCTYPE svg PUBLIC "-//W3C//DTD SVG 1.1//EN" "http://www.w3.org/Graphics/SVG/1.1/DTD/svg11.dtd">
<svg version="1.1" id="Слой_1" xmlns="http://www.w3.org/2000/svg" xmlns:xlink="http://www.w3.org/1999/xlink" x="0px" y="0px"
	 width="960px" height="560px" viewBox="0 0 960 560" enable-background="new 0 0 960 560" xml:space="preserve">
<g>
	<path fill="#FFFFFF" d="M191.061,217.299c33.858,0.14,64.163,0.209,90.915,0.209c11.286,0,22.396,0,33.335,0
		c10.937,0,20.655,0,29.156,0c8.497,0,15.361,0,20.586,0c5.226,0,7.838-0.069,7.838-0.209c-0.836,2.23-1.567,4.32-2.194,6.27
		c-0.627,1.953-1.358,4.18-2.194,6.688c-0.836,2.508-1.672,5.087-2.509,7.733c-1.952,6.133-4.18,13.167-6.688,21.109h-60.401
		c-1.812,5.852-3.449,11.217-4.912,16.093c-1.463,4.879-3.171,10.45-5.121,16.72c-1.953,6.271-3.902,12.681-5.852,19.229
		c-4.598,15.328-9.895,32.812-15.884,52.459h-60.61l31.141-104.5h-60.401L191.061,217.299z"/>
	<path fill="#FFFFFF" d="M386.892,217.299H452.1L416.36,328.904h116.831l-7.942,34.694H378.322c-4.32,0-8.709-1.149-13.167-3.449
		c-4.461-2.299-8.291-4.839-11.495-7.628c-1.116-0.974-1.985-2.682-2.612-5.12c-0.627-2.437-1.081-5.121-1.358-8.047
		s-0.346-5.885-0.209-8.883c0.137-2.994,0.486-5.467,1.045-7.419L386.892,217.299z"/>
	<path fill="#FFFFFF" d="M747.832,333.92c-0.836,3.345-2.37,6.761-4.598,10.241c-2.23,3.484-4.843,6.655-7.838,9.51
		c-2.997,2.857-6.201,5.225-9.613,7.106c-3.416,1.881-6.725,2.821-9.928,2.821H532.98l8.987-29.679h130.207
		c3.344,0,6.407-0.94,9.195-2.821c2.786-1.881,5.153-4.144,7.106-6.792c0.973-1.254,1.914-3.03,2.821-5.33
		c0.904-2.299,1.705-4.63,2.403-7.001c0.696-2.646,1.392-5.503,2.09-8.569H588.783c-4.879,0-9.649-0.486-14.316-1.463
		c-4.67-0.973-8.604-2.508-11.809-4.598c-3.207-2.09-5.365-4.735-6.479-7.942c-1.117-3.203-0.49-7.034,1.881-11.495l10.45-34.903
		c1.254-4.876,3.376-8.951,6.374-12.227c2.995-3.272,6.407-5.921,10.241-7.942c3.831-2.018,7.942-3.448,12.331-4.284
		s8.602-1.254,12.645-1.254h172.634l-9.405,31.35l-115.367,0.209c-6.688-0.277-11.809,0.35-15.362,1.881
		c-3.553,1.535-6.165,4.32-7.837,8.36l-4.599,15.048h106.591c3.48,0,6.825,0.313,10.031,0.94c3.204,0.627,5.957,1.744,8.256,3.344
		c2.299,1.604,3.971,3.658,5.016,6.166s1.078,5.643,0.104,9.404L747.832,333.92z"/>
</g>
</svg>
