<?xml version="1.0" encoding="utf-8"?>
<!-- Generator: Adobe Illustrator 17.0.2, SVG Export Plug-In . SVG Version: 6.00 Build 0)  -->
<!DOCTYPE svg PUBLIC "-//W3C//DTD SVG 1.1//EN" "http://www.w3.org/Graphics/SVG/1.1/DTD/svg11.dtd">
<svg version="1.1" id="Слой_1" xmlns="http://www.w3.org/2000/svg" xmlns:xlink="http://www.w3.org/1999/xlink" x="0px" y="0px"
	 width="960px" height="560px" viewBox="0 0 960 560" enable-background="new 0 0 960 560" xml:space="preserve">
<g>
	<path fill="#FFFFFF" d="M215.302,210c32.4,0.134,61.4,0.2,87,0.2c10.8,0,21.431,0,31.899,0c10.466,0,19.766,0,27.9,0
		c8.131,0,14.7,0,19.7,0s7.5-0.066,7.5-0.2c-0.8,2.134-1.5,4.134-2.101,6c-0.6,1.869-1.3,4-2.1,6.4s-1.6,4.869-2.4,7.4
		c-1.868,5.869-4,12.6-6.399,20.2h-57.8c-1.734,5.6-3.3,10.734-4.7,15.4c-1.4,4.669-3.035,10-4.9,16c-1.869,6-3.734,12.135-5.6,18.4
		c-4.4,14.669-9.469,31.4-15.2,50.2h-58l29.8-100h-57.8L215.302,210z"/>
	<path fill="#FFFFFF" d="M572.5,321.601c-0.801,3.199-2.27,6.469-4.4,9.799c-2.135,3.335-4.635,6.369-7.5,9.101
		c-2.869,2.734-5.934,5-9.199,6.8c-3.27,1.801-6.436,2.7-9.5,2.7h-175l8.6-28.399h124.6c3.201,0,6.131-0.9,8.801-2.701
		c2.666-1.799,4.932-3.965,6.799-6.5c0.932-1.199,1.832-2.899,2.701-5.1c0.865-2.199,1.631-4.432,2.299-6.699
		c0.666-2.531,1.332-5.266,2-8.201H420.3c-4.669,0-9.234-0.465-13.7-1.399c-4.469-0.931-8.234-2.399-11.3-4.399
		c-3.069-2-5.135-4.531-6.2-7.601c-1.069-3.065-0.469-6.731,1.8-11l10-33.4c1.2-4.666,3.231-8.566,6.1-11.7
		c2.866-3.131,6.132-5.666,9.801-7.6c3.665-1.931,7.6-3.3,11.8-4.1c4.2-0.8,8.231-1.2,12.1-1.2H605.9l-9,30l-110.4,0.2
		c-6.4-0.266-11.3,0.334-14.7,1.8c-3.4,1.469-5.9,4.134-7.5,8l-4.4,14.4h102c3.33,0,6.531,0.3,9.6,0.9
		c3.066,0.6,5.699,1.669,7.9,3.2c2.199,1.534,3.799,3.5,4.799,5.899c1,2.4,1.031,5.4,0.102,9L572.5,321.601z"/>
	<path fill="#FFFFFF" d="M617.898,210h62.4l-34.201,106.8h111.801l-7.6,33.2H609.697c-4.133,0-8.334-1.101-12.6-3.3
		c-4.268-2.2-7.934-4.631-11-7.301c-1.068-0.931-1.9-2.564-2.5-4.899c-0.6-2.331-1.033-4.899-1.299-7.7
		c-0.266-2.8-0.332-5.631-0.201-8.5c0.131-2.865,0.467-5.23,1-7.1L617.898,210z"/>
</g>
</svg>
